#N canvas 1118 364 566 419 10;
#X obj 57 43 *~;
#X obj 78 122 *~;
#X floatatom 162 143 5 0 0 0 - - -, f 5;
#X floatatom 270 201 5 0 0 0 - - -, f 5;
#X obj 165 124 hsl 64 8 0 1 0 0 empty empty empty -2 -8 0 10 -262144
-1 -1 1399 1;
#X obj 273 178 hsl 64 8 0 200 0 0 empty empty empty -2 -8 0 10 -262144
-1 -1 4300 1;
#X obj 270 219 delread~ delayline 125;
#X obj 9 197 delwrite~ delayline 1000;
#X obj 254 99 unpack f f;
#X obj 254 48 r effects-hall;
#X obj 357 49 r effects-bathroom;
#X obj 57 12 inlet~;
#X obj 271 253 outlet~;
#X obj 130 12 r effects-on;
#X obj 130 56 r effects-off;
#X msg 130 35 1;
#X msg 130 77 0;
#X msg 254 70 0.222 136.5;
#X msg 357 71 0.3 54;
#X connect 0 0 1 0;
#X connect 1 0 7 0;
#X connect 2 0 1 1;
#X connect 3 0 6 0;
#X connect 4 0 2 0;
#X connect 5 0 3 0;
#X connect 6 0 1 0;
#X connect 6 0 12 0;
#X connect 8 0 4 0;
#X connect 8 1 5 0;
#X connect 9 0 17 0;
#X connect 10 0 18 0;
#X connect 11 0 0 0;
#X connect 13 0 15 0;
#X connect 14 0 16 0;
#X connect 15 0 0 1;
#X connect 16 0 0 1;
#X connect 17 0 8 0;
#X connect 18 0 8 0;
