#N canvas 0 50 1920 1037 10;
#X obj 352 1 netreceive 7778;
#X obj 533 521 dac~;
#X obj 468 15 tgl 10 0 empty empty empty 17 7 0 10 -262144 -1 -1 1
1;
#X obj 305 30 print;
#X obj 404 452 receive~ left-output;
#X obj 650 452 receive~ right-output;
#X obj 526 404 send~ right-output;
#X obj 405 404 send~ left-output;
#X obj 540 452 receive~ output;
#X obj 632 346 send~ output;
#X obj 353 41 route snare bass china-cymbal crash-cymbal hihat tomtom-small
tomtom-large;
#X obj 136 133 PlaySample bass.wav;
#X obj 259 133 PlaySample china-cymbal.wav;
#X obj 431 133 PlaySample crash-cymbal.wav;
#X obj 740 133 PlaySample tomtom-small.wav;
#X obj 604 133 PlaySample hihat2.wav;
#X obj 6 133 PlaySample snare.wav;
#X floatatom 702 301 5 0 0 0 - - -, f 5;
#X obj 552 288 /~ 1;
#X obj 493 11 s connection;
#X obj 702 258 r connection;
#X obj 677 6 route effects-on effects-off effects-bathroom effects-hall
, f 68;
#X obj 677 41 s effects-on;
#X obj 763 41 s effects-off;
#X obj 863 41 s effects-bathroom;
#X obj 980 40 s effects-hall;
#X obj 1111 6 r connection;
#X obj 404 344 delay-module;
#X obj 525 346 reverb-module;
#X obj 915 133 speed-module tomtom-small.wav;
#X msg 702 280 7;
#X text 742 302 "should" be #instruments;
#X connect 0 0 3 0;
#X connect 0 0 10 0;
#X connect 0 1 2 0;
#X connect 2 0 19 0;
#X connect 4 0 1 0;
#X connect 5 0 1 1;
#X connect 8 0 1 0;
#X connect 8 0 1 1;
#X connect 10 0 16 0;
#X connect 10 1 11 0;
#X connect 10 2 12 0;
#X connect 10 3 13 0;
#X connect 10 4 15 0;
#X connect 10 5 14 0;
#X connect 10 6 29 0;
#X connect 10 7 21 0;
#X connect 11 0 18 0;
#X connect 12 0 18 0;
#X connect 13 0 18 0;
#X connect 14 0 18 0;
#X connect 15 0 18 0;
#X connect 16 0 18 0;
#X connect 17 0 18 1;
#X connect 18 0 9 0;
#X connect 18 0 28 0;
#X connect 18 0 27 0;
#X connect 20 0 30 0;
#X connect 21 0 22 0;
#X connect 21 1 23 0;
#X connect 21 2 24 0;
#X connect 21 3 25 0;
#X connect 26 0 25 0;
#X connect 27 0 7 0;
#X connect 27 0 6 0;
#X connect 28 0 7 0;
#X connect 28 1 6 0;
#X connect 29 0 18 0;
#X connect 30 0 17 0;
