#N canvas 823 392 1920 1039 10;
#X obj 56 23 netreceive 7778;
#X obj 228 334 dac~;
#X obj 172 37 tgl 10 0 empty empty empty 17 7 0 10 -262144 -1 -1 1
1;
#X obj 9 52 print;
#X obj 57 63 route snare bass china-cymbal crash-cymbal hihat tomtom-small
tomtom-large;
#X obj 259 133 PlaySample china-cymbal.wav;
#X floatatom 295 261 5 0 0 0 - - -, f 5;
#X obj 170 227 /~ 1;
#X obj 197 33 s connection;
#X obj 295 218 r connection;
#X obj 368 7 route effects-on effects-off effects-bathroom effects-hall
, f 68;
#X obj 368 42 s effects-on;
#X obj 457 41 s effects-off;
#X obj 552 41 s effects-bathroom;
#X obj 676 41 s effects-hall;
#X obj 785 7 r connection;
#X obj 22 283 delay-module;
#X obj 915 133 speed-module tomtom-small.wav;
#X text 335 262 "should" be #instruments;
#X msg 295 240 4;
#X obj 136 133 PlaySample bass.wav;
#X obj 431 133 PlaySample crash-cymbal.wav;
#X obj 740 133 PlaySample tomtom-small.wav;
#X obj 604 133 PlaySample hihat2.wav;
#X obj 6 133 PlaySample snare.wav;
#X obj 108 283 reverb-module;
#X connect 0 0 3 0;
#X connect 0 0 4 0;
#X connect 0 1 2 0;
#X connect 2 0 8 0;
#X connect 4 0 24 0;
#X connect 4 1 20 0;
#X connect 4 2 5 0;
#X connect 4 3 21 0;
#X connect 4 4 23 0;
#X connect 4 5 22 0;
#X connect 4 6 17 0;
#X connect 4 7 10 0;
#X connect 5 0 7 0;
#X connect 6 0 7 1;
#X connect 7 0 16 0;
#X connect 7 0 25 0;
#X connect 7 0 1 0;
#X connect 7 0 1 1;
#X connect 9 0 19 0;
#X connect 10 0 11 0;
#X connect 10 1 12 0;
#X connect 10 2 13 0;
#X connect 10 3 14 0;
#X connect 15 0 14 0;
#X connect 16 0 1 0;
#X connect 16 0 1 1;
#X connect 17 0 7 0;
#X connect 19 0 6 0;
#X connect 20 0 7 0;
#X connect 21 0 7 0;
#X connect 22 0 7 0;
#X connect 23 0 7 0;
#X connect 24 0 7 0;
#X connect 25 0 1 0;
#X connect 25 0 1 1;
#X connect 25 1 1 1;
