#N canvas 0 50 2560 1357 10;
#X obj 108 35 netreceive 7778;
#X obj 30 490 dac~;
#X obj 871 280 rev2~, f 23;
#X floatatom 872 258 5 0 0 0 - - -, f 5;
#X floatatom 910 259 5 0 0 0 - - -, f 5;
#X floatatom 946 259 5 0 0 0 - - -, f 5;
#X floatatom 983 259 5 0 0 0 - - -, f 5;
#X text 804 262 reverb;
#X obj 224 49 tgl 10 0 empty empty empty 17 7 0 10 -262144 -1 -1 1
1;
#X obj 817 239 *~;
#X msg 824 191 1;
#X msg 824 170 0;
#X obj 186 312 send~ sfx;
#X obj 818 151 receive~ sfx;
#X obj 872 237 unpack f f f f;
#X obj 56 35 print;
#X obj 31 401 receive~ left-output;
#X obj 26 421 receive~ right-output;
#X obj 1016 313 send~ right-output;
#X obj 871 313 send~ left-output;
#X obj 64 442 receive~ output;
#X obj 99 313 send~ output;
#X msg 538 165 open tomtom-small.wav;
#X obj 538 222 soundfiler;
#N canvas 0 50 450 250 (subpatch) 0;
#X array wave 117906 float 2;
#X coords 0 1 117906 -1 200 140 1 0 0;
#X restore 538 491 graph;
#X floatatom 562 249 12 0 0 0 - - -, f 12;
#X obj 562 266 send sampleSize;
#X obj 575 406 receive sampleSize;
#X obj 538 420 *~;
#X obj 538 441 tabread4~ wave;
#X obj 538 387 line~;
#X obj 538 290 expr $f1 / 44.1;
#X floatatom 538 346 10 0 0 0 - - -, f 10;
#X msg 538 364 1 \$1;
#X obj 647 132 t b b;
#X obj 539 320 *;
#X obj 592 311 hsl 64 9 0 3 0 0 empty empty empty -2 -8 0 10 -262144
-1 -1 2940 1;
#X floatatom 591 325 5 0 0 0 - - -, f 5;
#X msg 538 191 read -resize \$1 wave;
#X msg 722 372 0;
#X obj 109 75 route snare bass china-cymbal crash-cymbal hihat tomtom-small
tomtom-large;
#X obj 152 113 PlaySample bass.wav;
#X obj 284 114 PlaySample china-cymbal.wav;
#X obj 8 171 PlaySample crash-cymbal.wav;
#X obj 333 170 PlaySample tomtom-small.wav;
#X obj 192 170 PlaySample hihat2.wav;
#X obj 10 113 PlaySample snare.wav;
#X floatatom 214 261 5 0 0 0 - - -, f 5;
#X obj 171 260 /~ 1;
#X obj 249 45 s connection;
#X obj 215 241 r connection;
#X msg 683 296 1.4;
#X text 575 361 ms we play sound @;
#X text 254 262 "should" be 7;
#X obj 812 469 *~;
#X msg 819 421 1;
#X msg 819 400 0;
#X obj 813 381 receive~ sfx;
#X obj 881 541 *~;
#X floatatom 1076 527 5 0 0 0 - - -, f 5;
#X obj 538 461 s~ output-input;
#X obj 9 226 r~ output-input;
#X obj 433 40 route effects-on effects-off effects-bathroom effects-hall
, f 68;
#X obj 433 75 s effects-on;
#X obj 519 75 s effects-off;
#X obj 607 75 s effects-bathroom;
#X obj 729 75 s effects-hall;
#X obj 857 172 receive effects-off;
#X obj 857 190 receive effects-on;
#X obj 852 402 receive effects-off;
#X obj 852 420 receive effects-on;
#X obj 1012 166 receive effects-hall;
#X obj 1012 205 receive effects-bathroom;
#X floatatom 971 562 5 0 0 0 - - -, f 5;
#X obj 1079 508 hsl 64 8 0 1 0 0 empty empty empty -2 -8 0 10 -262144
-1 -1 1890 1;
#X obj 928 613 s~ delay-output;
#X obj 950 354 r~ delay-output;
#X obj 1022 554 hsl 64 8 0 200 0 0 empty empty empty -2 -8 0 10 -262144
-1 -1 1701 1;
#X obj 971 580 delread~ delayline 125;
#X obj 812 498 delwrite~ delayline 1000;
#X msg 1012 224 90 25 3000 20;
#X msg 1012 185 89 83 300 0;
#X obj 1019 480 unpack f f;
#X msg 1019 456 136.5 0.222;
#X msg 1122 457 54 0.3;
#X obj 1019 434 r effects-hall;
#X obj 1122 435 r effects-bathroom;
#X obj 682 268 r connection;
#X obj 682 268 r connection;
#X obj 682 268 r connection;
#X obj 729 57 r connection;
#X obj 989 141 r connection;
#X obj 989 141 r connection;
#X connect 0 0 15 0;
#X connect 0 0 40 0;
#X connect 0 1 8 0;
#X connect 2 0 19 0;
#X connect 2 1 18 0;
#X connect 3 0 2 1;
#X connect 4 0 2 2;
#X connect 5 0 2 3;
#X connect 6 0 2 4;
#X connect 8 0 49 0;
#X connect 9 0 2 0;
#X connect 10 0 9 1;
#X connect 11 0 9 1;
#X connect 13 0 9 0;
#X connect 14 0 3 0;
#X connect 14 1 4 0;
#X connect 14 2 5 0;
#X connect 14 3 6 0;
#X connect 16 0 1 0;
#X connect 17 0 1 1;
#X connect 20 0 1 0;
#X connect 20 0 1 1;
#X connect 22 0 38 0;
#X connect 23 0 25 0;
#X connect 23 0 31 0;
#X connect 25 0 26 0;
#X connect 27 0 28 1;
#X connect 28 0 29 0;
#X connect 29 0 60 0;
#X connect 30 0 28 0;
#X connect 31 0 35 0;
#X connect 32 0 33 0;
#X connect 33 0 30 0;
#X connect 34 0 22 0;
#X connect 34 1 39 0;
#X connect 35 0 32 0;
#X connect 36 0 37 0;
#X connect 36 0 35 1;
#X connect 38 0 23 0;
#X connect 39 0 30 0;
#X connect 40 0 46 0;
#X connect 40 1 41 0;
#X connect 40 2 42 0;
#X connect 40 3 43 0;
#X connect 40 4 45 0;
#X connect 40 5 44 0;
#X connect 40 6 34 0;
#X connect 40 7 62 0;
#X connect 41 0 48 0;
#X connect 42 0 48 0;
#X connect 43 0 48 0;
#X connect 44 0 48 0;
#X connect 45 0 48 0;
#X connect 46 0 48 0;
#X connect 47 0 48 1;
#X connect 48 0 21 0;
#X connect 48 0 12 0;
#X connect 50 0 47 0;
#X connect 51 0 36 0;
#X connect 54 0 58 0;
#X connect 55 0 54 1;
#X connect 56 0 54 1;
#X connect 57 0 54 0;
#X connect 58 0 79 0;
#X connect 59 0 58 1;
#X connect 61 0 48 0;
#X connect 62 0 63 0;
#X connect 62 1 64 0;
#X connect 62 2 65 0;
#X connect 62 3 66 0;
#X connect 67 0 11 0;
#X connect 68 0 10 0;
#X connect 69 0 56 0;
#X connect 70 0 55 0;
#X connect 71 0 81 0;
#X connect 72 0 80 0;
#X connect 73 0 78 0;
#X connect 74 0 59 0;
#X connect 76 0 19 0;
#X connect 76 0 18 0;
#X connect 77 0 73 0;
#X connect 78 0 58 0;
#X connect 78 0 75 0;
#X connect 80 0 14 0;
#X connect 81 0 14 0;
#X connect 82 0 77 0;
#X connect 82 1 74 0;
#X connect 83 0 82 0;
#X connect 84 0 82 0;
#X connect 85 0 83 0;
#X connect 86 0 84 0;
#X connect 87 0 51 0;
#X connect 90 0 66 0;
