#N canvas 906 463 984 743 10;
#X msg 60 139 start;
#X obj 60 199 readsf~;
#X obj 60 49 inlet;
#X obj 59 254 outlet~;
#X obj 113 149 symbol \$1;
#X msg 113 176 open \$1;
#X obj 60 72 t b b;
#X obj 191 181 line~;
#X obj 60 226 *~;
#X obj 59 116 t b b b;
#X msg 162 95 1;
#X msg 191 84 0 20;
#X obj 60 94 delay 20;
#X connect 0 0 1 0;
#X connect 1 0 8 0;
#X connect 2 0 6 0;
#X connect 4 0 5 0;
#X connect 5 0 1 0;
#X connect 6 0 12 0;
#X connect 6 1 11 0;
#X connect 7 0 8 1;
#X connect 8 0 3 0;
#X connect 9 0 0 0;
#X connect 9 1 4 0;
#X connect 9 2 10 0;
#X connect 10 0 7 0;
#X connect 11 0 7 0;
#X connect 12 0 9 0;
