#N canvas 1119 411 398 306 10;
#X obj 54 218 rev2~, f 23;
#X floatatom 81 186 5 0 0 0 - - -, f 5;
#X floatatom 119 187 5 0 0 0 - - -, f 5;
#X floatatom 155 187 5 0 0 0 - - -, f 5;
#X floatatom 192 187 5 0 0 0 - - -, f 5;
#X text 7 217 reverb;
#X obj 18 108 *~;
#X msg 52 100 1;
#X msg 53 56 0;
#X obj 95 151 unpack f f f f;
#X obj 53 34 receive effects-off;
#X obj 52 81 receive effects-on;
#X obj 209 59 receive effects-hall;
#X obj 209 98 receive effects-bathroom;
#X msg 209 117 90 25 3000 20;
#X msg 209 78 89 83 300 0;
#X obj 55 251 outlet~;
#X obj 131 250 outlet~;
#X obj 18 10 inlet~;
#X connect 0 0 16 0;
#X connect 0 1 17 0;
#X connect 1 0 0 1;
#X connect 2 0 0 2;
#X connect 3 0 0 3;
#X connect 4 0 0 4;
#X connect 6 0 0 0;
#X connect 7 0 6 1;
#X connect 8 0 6 1;
#X connect 9 0 1 0;
#X connect 9 1 2 0;
#X connect 9 2 3 0;
#X connect 9 3 4 0;
#X connect 10 0 8 0;
#X connect 11 0 7 0;
#X connect 12 0 15 0;
#X connect 13 0 14 0;
#X connect 14 0 9 0;
#X connect 15 0 9 0;
#X connect 18 0 6 0;
