#N canvas 1029 53 799 897 10;
#X obj 109 173 soundfiler;
#N canvas 0 50 450 250 (subpatch) 0;
#X array wave 117906 float 2;
#X coords 0 1 117906 -1 200 140 1 0 0;
#X restore 109 586 graph;
#X floatatom 133 200 12 0 0 0 - - -, f 12;
#X obj 133 217 send sampleSize;
#X obj 146 477 receive sampleSize;
#X obj 109 491 *~;
#X obj 109 458 line~;
#X obj 109 241 expr $f1 / 44.1;
#X floatatom 109 349 10 0 0 0 - - -, f 10;
#X msg 109 367 1 \$1;
#X obj 109 43 t b b;
#X obj 109 322 *;
#X obj 165 312 hsl 64 9 0 3 0 0 empty empty empty -2 -8 0 10 -262144
-1 -1 3340 1;
#X floatatom 159 329 5 0 0 0 - - -, f 5;
#X msg 133 427 0;
#X msg 178 287 1.4;
#X text 146 364 ms we play sound @;
#X obj 178 263 r connection;
#X obj 178 263 r connection;
#X obj 178 263 r connection;
#X msg 109 116 open \$1;
#X obj 109 10 inlet;
#X obj 109 89 symbol \$1;
#X obj 141 65 s reset-line;
#X obj 133 404 r reset-line;
#X obj 109 532 outlet~;
#X msg 109 142 read -resize \$1 wave;
#X obj 109 512 tabread4~ wave;
#X connect 0 0 2 0;
#X connect 0 0 7 0;
#X connect 2 0 3 0;
#X connect 4 0 5 1;
#X connect 5 0 27 0;
#X connect 6 0 5 0;
#X connect 7 0 11 0;
#X connect 8 0 9 0;
#X connect 9 0 6 0;
#X connect 10 0 22 0;
#X connect 10 1 23 0;
#X connect 11 0 8 0;
#X connect 12 0 13 0;
#X connect 12 0 11 1;
#X connect 14 0 6 0;
#X connect 15 0 12 0;
#X connect 17 0 15 0;
#X connect 20 0 26 0;
#X connect 21 0 10 0;
#X connect 22 0 20 0;
#X connect 24 0 14 0;
#X connect 26 0 0 0;
#X connect 27 0 25 0;
